<svg width="195" height="39" viewBox="0 0 195 39" fill="none" xmlns="http://www.w3.org/2000/svg">
<g clip-path="url(#clip0)">
<path d="M63.4949 11.4138C63.0623 11.9329 61.9377 12.0771 57.583 12.2069C52.8966 12.3367 51.2528 12.4953 49.2484 13.0144C46.6961 13.6488 45.1533 14.5861 44.5188 15.8983C44.0718 16.8067 44.0862 17.8161 44.5476 18.4505C44.8649 18.8976 45.7157 19.2725 46.3789 19.2725C46.8837 19.2725 48.066 18.7822 48.066 18.5803C48.066 18.5082 47.9074 18.3063 47.7055 18.1189C47.5037 17.9314 47.3017 17.5709 47.2585 17.297C46.9845 15.8118 48.6284 14.7736 51.9882 14.3121C52.7668 14.2112 53.4301 14.1535 53.4589 14.1824C53.5022 14.2256 53.4301 14.5284 53.3147 14.8457C52.0891 18.2775 51.0076 27.5493 51.3825 31.457C51.5412 33.1873 51.7574 33.7065 52.5505 34.2399C52.9831 34.5427 53.1705 34.5717 54.1655 34.5283C54.7711 34.4851 55.3047 34.4275 55.3479 34.3985C55.3767 34.3553 55.2758 33.9083 55.1171 33.4036C54.0213 29.8708 54.1511 22.488 55.4344 15.5522L55.7372 13.9372H58.1598C59.5007 13.9372 60.6975 13.894 60.8417 13.8363C61.0725 13.7498 61.0869 13.894 61.0003 15.9704C60.9571 17.196 60.7697 19.359 60.5966 20.7865C60.1784 24.276 60.1063 31.4282 60.4957 32.2789C60.8273 33.0287 61.3465 33.3171 62.3557 33.3315C62.8028 33.3315 63.2209 33.2883 63.2642 33.245C63.3219 33.2017 63.2498 32.5528 63.12 31.803C62.9614 30.9812 62.8605 29.6401 62.8605 28.4289C62.8461 26.4967 62.8605 26.3813 63.2354 25.6603C63.668 24.8672 65.2108 23.2378 65.384 23.4109C65.4272 23.483 65.557 23.8434 65.6434 24.2472C65.903 25.2998 66.8402 27.2033 67.7775 28.6163C68.9023 30.289 70.9499 32.3366 72.1178 32.9566C73.3146 33.5767 73.8338 33.5045 74.7134 32.5961C75.5209 31.7454 75.492 31.5146 74.5836 31.0964C71.988 29.9285 69.3637 27.2897 67.9073 24.3626C67.417 23.382 66.9989 22.1996 67.1142 22.1131C67.1431 22.0843 68.3111 21.2624 69.6953 20.2818C72.4494 18.364 73.2282 17.744 73.8914 17.0519C74.4682 16.4318 74.9296 15.4513 74.8287 15.0331C74.6989 14.5284 74.1942 13.9516 73.5742 13.6488L73.0262 13.3605L72.5216 14.0958C71.195 16.0569 69.2339 18.0324 66.5952 20.0223C65.802 20.6135 64.6629 21.5652 64.0717 22.1275C63.4805 22.6899 62.9759 23.1225 62.947 23.1081C62.9181 23.0792 63.0047 21.6949 63.1489 20.0367C63.2787 18.3929 63.394 16.2444 63.4084 15.2782L63.4229 13.5191L63.8987 13.4325C64.9658 13.2307 65.2542 12.3367 64.4899 11.6157C63.9852 11.1398 63.7545 11.0966 63.4949 11.4138Z" fill="#333333"/>
<path d="M34.7279 13.0726C33.3004 13.188 33.012 13.2457 31.6277 13.6783C29.5369 14.3415 27.5902 15.8268 26.8548 17.3264C26.5664 17.932 26.5088 18.2637 26.5088 19.3451C26.5088 20.4266 26.5664 20.7438 26.8548 21.2774C27.5037 22.503 28.7871 23.671 30.4453 24.5362L31.2239 24.94L30.2723 25.4446C28.9313 26.1512 28.1237 26.9154 27.6046 27.9536C26.3646 30.4049 27.6767 32.7986 30.8491 33.8944C34.3818 35.1345 38.6356 34.3559 41.087 32.0344C41.707 31.4576 41.8656 31.2124 41.8656 30.8519C41.8656 30.2319 41.534 29.9867 41.1158 30.2895C39.9766 31.1259 38.7798 31.8324 37.9435 32.1642C34.8576 33.3898 30.9499 32.5822 29.8973 30.5059C29.5369 29.7993 29.5225 28.6313 29.8829 27.8383C30.2001 27.1317 31.1663 26.281 32.017 25.9636C32.6226 25.733 32.7236 25.733 33.7618 25.9782C34.425 26.1368 35.4344 26.252 36.2708 26.252C37.5541 26.2665 37.6839 26.2376 38.0443 25.906C38.5779 25.4014 38.4914 24.7958 37.8281 24.392C37.3955 24.1468 37.0783 24.1036 35.7373 24.1036C34.8721 24.1036 33.8772 24.1612 33.5454 24.219L32.9398 24.3487L31.8007 23.2096C30.4885 21.8974 29.9117 20.8736 29.7965 19.5903C29.5945 17.312 31.0365 15.5095 33.7186 14.7165C34.3386 14.529 35.074 14.4569 36.3141 14.4569C39.097 14.4569 40.6976 15.0337 42.1972 16.5622C43.0912 17.485 43.5094 17.5715 43.6825 16.8794C44.2159 14.7597 39.4287 12.7266 34.7279 13.0726Z" fill="#333333"/>
<path d="M131.165 13.2021C129.839 13.8077 128.787 15.4082 128.08 17.874C127.69 19.1862 126.941 23.6851 126.941 24.6367C126.941 24.8675 126.839 25.0837 126.682 25.1703C126.277 25.3865 124.23 25.7327 122.773 25.8479L121.447 25.9489L121.533 26.3239C121.822 27.4486 122.961 27.8667 125.109 27.636C125.816 27.5495 126.436 27.5207 126.479 27.5495C126.61 27.6937 125.816 30.8804 125.369 32.0628L124.908 33.2453L124.085 33.3317C123.638 33.3895 123.018 33.4903 122.73 33.5625C122.254 33.6779 122.182 33.7643 122.182 34.1104C122.182 34.9035 123.177 35.711 124.172 35.711C124.85 35.711 125.859 35.2928 126.335 34.8314L126.796 34.3843L129.564 35.3505C134.698 37.124 135.001 37.1962 137.034 37.2106C138.635 37.225 138.908 37.1818 139.514 36.8934C140.712 36.3022 140.913 35.1053 139.99 34.0095L139.63 33.5769L138.794 33.8365C136.342 34.6007 133.415 34.6007 129.638 33.8365C127.633 33.4183 127.243 33.3029 127.315 33.1155C127.936 31.6879 128.382 29.972 128.873 27.1746C128.959 26.7131 129.075 26.5834 129.782 26.1797C130.618 25.7039 131.959 24.6801 132.535 24.0888C133.184 23.4255 134.309 21.8249 134.713 21.0175C136.327 17.7875 136.126 14.3989 134.237 13.2886C133.458 12.8271 132.088 12.7983 131.165 13.2021ZM133.631 14.6584C134.093 15.2208 134.208 15.8553 134.078 17.1386C133.89 19.0996 133.199 20.7002 131.929 22.1133C131.324 22.7766 129.68 24.0311 129.392 24.0311C129.147 24.0311 130.098 18.3787 130.646 16.6339C131.093 15.192 131.929 14.2258 132.738 14.2258C133.141 14.2258 133.343 14.3268 133.631 14.6584Z" fill="#333333"/>
<path d="M85.6288 13.5193C82.7449 13.8797 80.6252 17.2107 80.8271 21.0751C80.9569 23.5264 82.0383 25.0549 83.6533 25.0693C84.3454 25.0693 84.8646 24.8097 85.225 24.2763C85.7586 23.4976 85.7152 23.1803 85.0664 22.9496C84.3166 22.6901 83.4803 21.8393 83.1053 20.9597C82.7449 20.1234 82.6727 18.3498 82.9611 17.4558C83.8263 14.8314 86.667 14.0384 88.5415 15.8985C89.7095 17.0809 90.4017 19.2006 90.5603 22.0989C90.8054 27.0592 89.3057 30.9237 86.5516 32.3945C85.8018 32.7837 85.4268 32.8847 84.5329 32.9423C82.9179 33.0289 82.1103 32.7261 81.0145 31.6158C79.9907 30.592 79.3995 29.4384 78.9092 27.5639C78.6064 26.4103 78.5632 25.9633 78.5776 23.4543C78.592 21.0318 78.6352 20.4839 78.9092 19.4889C79.2409 18.2344 79.9475 16.6339 80.3368 16.2013C80.5675 15.9417 80.5675 15.9129 80.2359 15.6533C79.486 15.0333 78.3614 15.4803 77.525 16.7348C75.9965 18.9987 75.4197 24.8097 76.3858 28.1118C76.9194 29.8998 77.4818 30.9381 78.5632 32.0773C80.1349 33.7499 81.8653 34.4709 84.331 34.4709C85.4702 34.4853 86.0036 34.4132 86.84 34.1248C89.0317 33.4183 90.8053 31.8321 91.9445 29.5826C92.651 28.1696 93.0404 26.6987 93.2278 24.5935C93.372 23.0506 93.3576 22.5171 93.1702 21.1328C92.7808 18.4219 92.0454 16.6771 90.69 15.264C89.3779 13.8797 87.5898 13.2741 85.6288 13.5193Z" fill="#333333"/>
<path d="M166.769 13.577C163.524 14.1682 160.337 15.8697 160.597 16.8646C160.741 17.4558 161.073 17.4414 161.88 16.8358C162.63 16.2734 163.769 15.6534 164.404 15.4515C164.707 15.365 164.72 15.3794 164.605 15.6246C163.985 16.7781 163.034 20.1956 162.428 23.3823C161.751 27.0015 161.635 28.2128 161.62 31.6014C161.62 34.7593 161.62 34.7737 162.01 35.6101C162.356 36.331 162.5 36.4896 163.077 36.7492C163.64 36.9944 163.928 37.0232 164.707 36.951C165.211 36.9078 165.687 36.8213 165.745 36.7636C165.802 36.6916 165.73 36.259 165.571 35.7975C165.414 35.3217 165.139 34.0527 164.98 32.9857C164.735 31.2986 164.707 30.5632 164.764 27.7802C164.879 23.2669 165.399 20.0802 166.552 16.9656C167.042 15.6534 167.057 15.5813 166.841 15.192C166.625 14.8171 166.624 14.7882 166.856 14.6873C166.985 14.6296 168.008 14.5864 169.119 14.5864C171.023 14.5864 171.18 14.6152 172.003 14.9901C173.617 15.7399 174.295 16.706 174.282 18.2633C174.282 19.5611 173.863 20.383 172.522 21.7384C170.994 23.2525 170.33 23.6274 169.003 23.6562C167.706 23.6851 167.129 23.9879 167.201 24.5791C167.273 25.228 167.821 25.4155 169.018 25.1847C169.581 25.0838 170.488 25.0261 171.08 25.0693C173.286 25.2135 174.396 26.3383 174.367 28.3859C174.354 30.0152 173.632 31.2409 172.306 31.8898C170.921 32.5675 169.696 32.5387 167.187 31.7312C166.856 31.6302 166.841 31.6447 166.928 32.1926C167.057 32.9569 167.893 33.7355 168.917 34.0527C169.812 34.3123 171.699 34.3555 172.709 34.1249C174.151 33.8077 175.55 32.8559 176.184 31.76C177.194 30.0008 176.905 27.6216 175.449 25.9345C174.873 25.2424 173.243 24.3772 172.277 24.233L171.614 24.1321L172.897 23.5265C175.953 22.0701 177.598 20.1523 177.612 18.047C177.612 15.8264 175.608 14.1682 172.234 13.577C170.763 13.3174 168.196 13.3174 166.769 13.577Z" fill="#333333"/>
<path d="M11.0511 13.6637C10.3445 13.8656 8.91702 15.2787 7.96532 16.7351C5.24002 20.8447 2.01005 29.3089 1.33233 34.1107C1.0151 36.3313 1.41884 36.9369 3.46642 37.3695C3.99995 37.4848 4.4902 37.5858 4.53346 37.5858C4.57672 37.5858 4.59114 36.9801 4.54788 36.2447C4.4037 33.3032 5.75913 27.5065 7.92206 21.8973C8.68629 19.9218 9.96964 17.3695 10.5897 16.6341C11.3395 15.7257 12.1326 15.4806 12.3777 16.0718C12.5508 16.5044 12.4498 20.3832 12.147 24.3198C11.8586 28.1987 11.873 29.1936 12.2623 30.7364C12.9256 33.4473 14.8435 34.2404 16.1989 32.3802C16.6747 31.717 17.4822 29.6983 18.8665 25.6896C20.02 22.3731 20.3084 21.6089 20.8276 20.5418C21.3178 19.5757 21.5053 19.4171 21.7793 19.7776C22.0677 20.1814 22.0099 21.9117 21.5918 26.2231C21.0583 31.7314 21.1736 33.779 22.1253 34.8027C22.2983 34.9759 22.5867 35.1489 22.7742 35.1921C23.2501 35.3219 24.3747 35.0335 24.8795 34.6875C25.2688 34.3991 25.2832 34.3702 25.0813 34.0674C24.6775 33.505 24.2883 32.5389 24.1297 31.7026C23.971 30.8518 23.6681 25.358 23.7691 25.185C23.8845 24.9974 23.8701 18.7682 23.7691 18.3357C23.5673 17.557 23.0049 16.6053 22.6445 16.4034C22.1541 16.1439 21.5918 16.3025 21.1015 16.8216C20.2652 17.7156 19.5442 19.3594 16.7757 26.699C15.9681 28.8331 15.2761 30.6211 15.2472 30.65C15.1319 30.7798 15.0309 30.5346 14.8291 29.5252C14.6704 28.7899 14.5695 26.8432 14.4685 22.9788C14.3243 17.1533 14.1946 16.043 13.5601 14.8173C13.0266 13.7647 12.1037 13.3465 11.0511 13.6637Z" fill="#333333"/>
<path d="M143.596 13.7069C142.832 14.0386 142.774 14.2116 143.033 15.2354C143.293 16.2448 143.279 16.5476 142.789 21.8684C142.211 28.0111 142.471 31.0248 143.74 33.2022C144.231 34.0529 145.269 34.9181 146.048 35.1343C146.941 35.3795 148.21 35.2641 149.061 34.846C150.662 34.0529 152.593 31.7746 153.95 29.1214C154.367 28.2995 154.728 27.6363 154.771 27.6363C154.814 27.6363 154.872 28.1409 154.901 28.7465C154.945 30.0587 155.233 31.6882 155.549 32.438C156.04 33.6203 157.453 33.8655 158.881 33.0147C159.155 32.8561 159.155 32.8416 158.852 32.2938C158.016 30.7941 157.511 28.2129 157.41 24.7523C157.294 21.2772 157.598 18.797 158.462 15.7689C158.736 14.8461 158.794 14.4423 158.679 14.327C158.592 14.2405 158.145 14.1395 157.683 14.1107C156.906 14.053 156.79 14.0819 156.372 14.4568C155.852 14.947 155.651 15.7257 155.276 18.7682C154.8 22.6615 154.31 24.464 153.027 27.1893C150.056 33.4473 146.162 35.0623 145.254 30.4048C144.923 28.7753 145.139 24.3486 145.745 20.3544C146.48 15.4661 146.422 14.1107 145.457 13.6637C144.98 13.4474 144.129 13.4762 143.596 13.7069Z" fill="#333333"/>
<path d="M112.811 13.9663C109.191 14.471 106.005 16.7781 104.375 20.0657C102.775 23.2525 102.659 26.6411 104.029 29.4529C105.933 33.3173 110.835 35.4081 115.348 34.269C117.569 33.7067 120.222 32.106 120.813 30.938C121.116 30.3758 121.087 29.7124 120.741 29.3664C120.352 28.977 120.294 28.9914 119.891 29.5826C119.314 30.4334 117.829 31.7168 116.834 32.2214C115.435 32.928 113.791 33.2164 112.32 33.0001C110.907 32.7982 109.898 32.3224 108.86 31.3706C106.394 29.1212 105.716 25.4587 107.028 21.6086C107.591 20.0081 108.211 18.9843 109.422 17.773C111.109 16.0571 113.056 15.2352 115.377 15.2352C116.906 15.2352 117.569 15.4371 118.319 16.1004C118.867 16.5906 118.925 16.6916 118.982 17.4991C119.04 18.2345 118.982 18.5229 118.636 19.2727C118.333 19.936 118.276 20.2244 118.391 20.4118C118.622 20.7867 119.17 21.003 119.891 21.003C120.741 21.003 121.145 20.5993 121.304 19.5755C121.909 15.7831 118.045 13.2165 112.811 13.9663Z" fill="#333333"/>
<path d="M97.4387 27.8529C97.1937 27.9826 96.9053 28.2421 96.8043 28.4296C96.3717 29.2371 97.1937 30.6646 98.1021 30.6646C99.4863 30.6646 100.626 28.6459 99.6017 27.9826C99.0826 27.6365 97.9867 27.5789 97.4387 27.8529Z" fill="#333333"/>
</g>
<path d="M188.701 10.46L187.471 13.9229H187.014L185.783 10.4688V13.9229H184.992V9.20312H185.977L187.242 12.71L188.508 9.20312H189.492V13.9229H188.701V10.46ZM184.298 9.91504H183.006V13.9229H182.206V9.91504H180.905V9.20312H184.298V9.91504Z" fill="#333333"/>
<defs>
<clipPath id="clip0">
<rect width="177.611" height="33.3201" fill="white" transform="translate(0 5.21509)"/>
</clipPath>
</defs>
</svg>
